<svg xmlns="http://www.w3.org/2000/svg" width="1400" height="900" viewBox="0 0 1400 900">
  <defs>
    <linearGradient id="sky" x1="0" y1="0" x2="0" y2="1"><stop offset="0" stop-color="#e6e2dc"/><stop offset="1" stop-color="#f5f3f0"/></linearGradient>
    <linearGradient id="body" x1="0" y1="0" x2="1" y2="1"><stop offset="0" stop-color="#b9b1a5"/><stop offset="1" stop-color="#6f675e"/></linearGradient>
  </defs>
  <rect width="1400" height="900" fill="url(#sky)"/>
  <rect x="0" y="700" width="1400" height="200" fill="#9b9386"/>
  <g fill="url(#body)">
    <rect x="250" y="240" width="420" height="470"/>
    <rect x="720" y="330" width="380" height="380"/>
    <rect x="330" y="120" width="160" height="120"/>
  </g>
  <g fill="#efebe4">
    <rect x="300" y="320" width="60" height="80"/><rect x="400" y="320" width="60" height="80"/>
    <rect x="340" y="440" width="60" height="80"/><rect x="440" y="440" width="60" height="80"/>
    <rect x="770" y="380" width="55" height="70"/><rect x="870" y="380" width="55" height="70"/>
    <rect x="970" y="380" width="55" height="70"/><rect x="770" y="490" width="55" height="70"/>
    <rect x="360" y="150" width="100" height="60"/>
  </g>
  <rect x="250" y="710" width="420" height="30" fill="url(#body)"/>
  <rect x="720" y="710" width="380" height="30" fill="url(#body)"/>
</svg>
